<svg width="18" height="18" viewBox="0 0 18 18" fill="none" xmlns="http://www.w3.org/2000/svg">
<path d="M9.34425 1.24538C9.24444 1.16757 9.1215 1.12531 8.99494 1.12531C8.86838 1.12531 8.74544 1.16757 8.64563 1.24538L0.5625 7.54819L1.26169 8.43245L2.25 7.66182V14.625C2.25059 14.9232 2.36931 15.209 2.58016 15.4198C2.79101 15.6307 3.07681 15.7494 3.375 15.75H14.625C14.9232 15.7494 15.209 15.6307 15.4198 15.4198C15.6307 15.209 15.7494 14.9232 15.75 14.625V7.66688L16.7383 8.43751L17.4375 7.55326L9.34425 1.24538ZM10.125 14.625H7.875V10.125H10.125V14.625ZM11.25 14.625V10.125C11.2497 9.82673 11.1311 9.54075 10.9202 9.32984C10.7093 9.11893 10.4233 9.00031 10.125 9.00001H7.875C7.57672 9.00031 7.29075 9.11893 7.07983 9.32984C6.86892 9.54075 6.7503 9.82673 6.75 10.125V14.625H3.375V6.78488L9 2.40301L14.625 6.79051V14.625H11.25Z" fill="#8991A2"/>
</svg>
