<svg width="18" height="18" viewBox="0 0 18 18" fill="none" xmlns="http://www.w3.org/2000/svg">
<path d="M8.99996 0.66655C7.49171 0.66655 6.0974 1.03819 4.81702 1.78146C3.53663 2.52473 2.52481 3.53656 1.78153 4.81694C1.03826 6.09732 0.666626 7.49164 0.666626 8.99988C0.666626 10.5081 1.03826 11.9024 1.78153 13.1828C2.52481 14.4632 3.53663 15.475 4.81702 16.2183C6.0974 16.9616 7.49171 17.3332 8.99996 17.3332C10.5082 17.3332 11.9025 16.9616 13.1829 16.2183C14.4633 15.475 15.4751 14.4632 16.2184 13.1828C16.9617 11.9024 17.3333 10.5081 17.3333 8.99988C17.3333 7.49164 16.9617 6.09732 16.2184 4.81694C15.4751 3.53656 14.4633 2.52473 13.1829 1.78146C11.9025 1.03819 10.5082 0.66655 8.99996 0.66655ZM8.99996 16.3078C8.20786 16.3078 7.44017 16.1858 6.6969 15.9416C5.95363 15.6975 5.2836 15.3475 4.68681 14.8918C4.09002 14.4361 3.56647 13.9098 3.11617 13.313C2.66587 12.7162 2.31864 12.0462 2.0745 11.3029C1.83036 10.5597 1.70829 9.79198 1.70829 8.99988C1.70829 8.01247 1.90089 7.06846 2.28609 6.16785C2.67129 5.26724 3.18941 4.49142 3.84045 3.84038C4.4915 3.18934 5.26732 2.67122 6.16793 2.28602C7.06854 1.90082 8.01255 1.70822 8.99996 1.70822C9.98737 1.70822 10.9314 1.90082 11.832 2.28602C12.7326 2.67122 13.5084 3.18934 14.1595 3.84038C14.8105 4.49142 15.3286 5.26724 15.7138 6.16785C16.099 7.06846 16.2916 8.01247 16.2916 8.99988C16.2916 9.9873 16.099 10.9313 15.7138 11.8319C15.3286 12.7325 14.8105 13.5111 14.1595 14.1675C13.5084 14.824 12.7326 15.3448 11.832 15.73C10.9314 16.1152 9.98737 16.3078 8.99996 16.3078ZM9.52079 8.78829V3.79155C9.52079 3.65049 9.46925 3.52842 9.36617 3.42534C9.26309 3.32226 9.14102 3.27072 8.99996 3.27072C8.8589 3.27072 8.73683 3.32226 8.63375 3.42534C8.53067 3.52842 8.47913 3.65049 8.47913 3.79155V8.99988C8.47913 9.15179 8.53338 9.27658 8.64189 9.37423L8.65002 9.39051L8.65816 9.40678L11.2461 11.9784C11.3437 12.0869 11.4658 12.1412 11.6123 12.1412C11.7587 12.1412 11.8808 12.0896 11.9785 11.9865C12.0761 11.8835 12.125 11.7587 12.125 11.6122C12.125 11.4657 12.0761 11.3436 11.9785 11.246L9.52079 8.78829Z" fill="white"/>
</svg>
