<svg width="18" height="18" viewBox="0 0 18 18" fill="none" xmlns="http://www.w3.org/2000/svg">
<path d="M8.99996 0.666595C7.49171 0.666595 6.0974 1.03823 4.81702 1.7815C3.53663 2.52478 2.52481 3.5366 1.78153 4.81699C1.03826 6.09737 0.666626 7.49168 0.666626 8.99993C0.666626 10.5082 1.03826 11.9025 1.78153 13.1829C2.52481 14.4633 3.53663 15.4751 4.81702 16.2184C6.0974 16.9616 7.49171 17.3333 8.99996 17.3333C10.5082 17.3333 11.9025 16.9616 13.1829 16.2184C14.4633 15.4751 15.4751 14.4633 16.2184 13.1829C16.9617 11.9025 17.3333 10.5082 17.3333 8.99993C17.3333 7.49168 16.9617 6.09737 16.2184 4.81699C15.4751 3.5366 14.4633 2.52478 13.1829 1.7815C11.9025 1.03823 10.5082 0.666595 8.99996 0.666595ZM8.99996 16.3079C8.20786 16.3079 7.44017 16.1858 6.6969 15.9417C5.95363 15.6975 5.2836 15.3476 4.68681 14.8919C4.09002 14.4361 3.56647 13.9099 3.11617 13.3131C2.66587 12.7163 2.31864 12.0463 2.0745 11.303C1.83036 10.5597 1.70829 9.79203 1.70829 8.99993C1.70829 8.01252 1.90089 7.06851 2.28609 6.1679C2.67129 5.26729 3.18941 4.49147 3.84045 3.84042C4.4915 3.18938 5.26732 2.67126 6.16793 2.28606C7.06854 1.90086 8.01255 1.70826 8.99996 1.70826C9.98737 1.70826 10.9314 1.90086 11.832 2.28606C12.7326 2.67126 13.5084 3.18938 14.1595 3.84042C14.8105 4.49147 15.3286 5.26729 15.7138 6.1679C16.099 7.06851 16.2916 8.01252 16.2916 8.99993C16.2916 9.98734 16.099 10.9314 15.7138 11.832C15.3286 12.7326 14.8105 13.5111 14.1595 14.1676C13.5084 14.824 12.7326 15.3449 11.832 15.7301C10.9314 16.1153 9.98737 16.3079 8.99996 16.3079ZM11.9459 6.05397C11.8483 5.95631 11.7262 5.90748 11.5797 5.90748C11.4332 5.90748 11.3112 5.95631 11.2135 6.05397L8.99996 8.26751L6.78642 6.05397C6.68876 5.95631 6.56669 5.90748 6.42021 5.90748C6.27372 5.90748 6.15165 5.95631 6.054 6.05397C5.95634 6.15162 5.90751 6.27369 5.90751 6.42018C5.90751 6.56666 5.95634 6.68873 6.054 6.78639L8.26754 8.99993L6.054 11.2135C5.98889 11.2786 5.94278 11.3545 5.91565 11.4413C5.88852 11.5281 5.88852 11.6177 5.91565 11.7099C5.94278 11.8021 5.98889 11.8808 6.054 11.9459C6.15165 12.0435 6.27372 12.0924 6.42021 12.0924C6.56669 12.0924 6.68876 12.0435 6.78642 11.9459L8.99996 9.73235L11.2135 11.9459C11.3112 12.0435 11.4332 12.0924 11.5797 12.0924C11.7262 12.0924 11.8483 12.0435 11.9459 11.9459C12.011 11.8808 12.0571 11.8021 12.0843 11.7099C12.1114 11.6177 12.1114 11.5281 12.0843 11.4413C12.0571 11.3545 12.011 11.2786 11.9459 11.2135L9.73238 8.99993L11.9459 6.78639C12.0436 6.68873 12.0924 6.56666 12.0924 6.42018C12.0924 6.27369 12.0436 6.15162 11.9459 6.05397Z" fill="white"/>
</svg>
