<svg width="18" height="18" viewBox="0 0 18 18" fill="none" xmlns="http://www.w3.org/2000/svg">
<path d="M16.5 2.75006H10.25V1.50006C10.25 1.16854 10.1183 0.850598 9.88388 0.616177C9.64946 0.381757 9.33152 0.250061 9 0.250061H1.5C1.16848 0.250061 0.850537 0.381757 0.616116 0.616177C0.381696 0.850598 0.25 1.16854 0.25 1.50006V14.0001C0.25 14.3316 0.381696 14.6495 0.616116 14.8839C0.850537 15.1184 1.16848 15.2501 1.5 15.2501H7.75V16.5001C7.75 16.8316 7.8817 17.1495 8.11612 17.3839C8.35054 17.6184 8.66848 17.7501 9 17.7501H16.5C16.8315 17.7501 17.1495 17.6184 17.3839 17.3839C17.6183 17.1495 17.75 16.8316 17.75 16.5001V4.00006C17.75 3.66854 17.6183 3.3506 17.3839 3.11618C17.1495 2.88176 16.8315 2.75006 16.5 2.75006ZM1.5 8.37506H5.35625L3.74375 9.99381L4.625 10.8751L7.75 7.75006L4.625 4.62506L3.74375 5.50631L5.35625 7.12506H1.5V1.50006H9V14.0001H1.5V8.37506ZM9 16.5001V15.2501C9.33152 15.2501 9.64946 15.1184 9.88388 14.8839C10.1183 14.6495 10.25 14.3316 10.25 14.0001V4.00006H16.5V9.62506H12.6438L14.2563 8.00631L13.375 7.12506L10.25 10.2501L13.375 13.3751L14.2563 12.4938L12.6438 10.8751H16.5V16.5001H9Z" fill="white"/>
</svg>
