<svg width="20" height="20" viewBox="0 0 20 20" fill="none" xmlns="http://www.w3.org/2000/svg">
<path d="M17.45 9.16674C17.2613 7.47684 16.5035 5.90135 15.3011 4.69898C14.0988 3.49661 12.5233 2.73883 10.8334 2.55007V0.833405H9.16671V2.55007C8.35004 2.64174 7.57504 2.86674 6.85837 3.20007L8.13337 4.47507C9.16332 4.12604 10.2704 4.07208 11.3294 4.31929C12.3884 4.56651 13.3571 5.10503 14.1261 5.874C14.8951 6.64297 15.4336 7.61171 15.6808 8.67072C15.928 9.72974 15.8741 10.8368 15.525 11.8667L16.8 13.1417C17.1334 12.4251 17.3584 11.6501 17.45 10.8334H19.1667V9.16674H17.45ZM2.50004 3.5584L4.20004 5.2584C3.28512 6.37509 2.71217 7.73224 2.55004 9.16674H0.833374V10.8334H2.55004C2.7388 12.5233 3.49658 14.0988 4.69895 15.3012C5.90132 16.5035 7.47681 17.2613 9.16671 17.4501V19.1667H10.8334V17.4501C12.3084 17.2834 13.65 16.6917 14.7417 15.8001L16.4417 17.5001L17.6167 16.3251L3.67504 2.3834L2.50004 3.5584ZM13.5584 14.6167C12.4365 15.4806 11.0386 15.9067 9.62561 15.8153C8.21263 15.7239 6.88122 15.1213 5.88001 14.1201C4.87879 13.1189 4.27623 11.7875 4.18484 10.3745C4.09345 8.96152 4.51948 7.56359 5.38337 6.44174L13.5584 14.6167Z" fill="white"/>
</svg>
