<svg width="20" height="20" viewBox="0 0 20 20" fill="none" xmlns="http://www.w3.org/2000/svg">
<path d="M9.47913 12.6367V4.79167C9.47913 4.63976 9.52795 4.51498 9.62561 4.41732C9.72327 4.31967 9.84805 4.27084 9.99996 4.27084C10.1519 4.27084 10.2767 4.31967 10.3743 4.41732C10.472 4.51498 10.5208 4.63976 10.5208 4.79167V12.6367H9.47913ZM9.47913 13.6621H10.5208V14.6387H9.47913V13.6621ZM1.66663 10C1.66663 7.69966 2.48043 5.73568 4.10803 4.10808C5.73564 2.48047 7.69961 1.66667 9.99996 1.66667C12.3003 1.66667 14.2643 2.48047 15.8919 4.10808C17.5195 5.73568 18.3333 7.69966 18.3333 10C18.3333 12.3004 17.5195 14.2643 15.8919 15.8919C14.2643 17.5195 12.3003 18.3333 9.99996 18.3333C7.69961 18.3333 5.73564 17.5195 4.10803 15.8919C2.48043 14.2643 1.66663 12.3004 1.66663 10ZM17.3079 10C17.3079 7.99263 16.5918 6.2755 15.1595 4.84864C13.7272 3.42177 12.0073 2.70834 9.99996 2.70834C7.99258 2.70834 6.27546 3.42177 4.84859 4.84864C3.42173 6.2755 2.70829 7.99263 2.70829 10C2.70829 12.0074 3.42173 13.7245 4.84859 15.1514C6.27546 16.5782 7.99258 17.2917 9.99996 17.2917C12.0073 17.2917 13.7272 16.5782 15.1595 15.1514C16.5918 13.7245 17.3079 12.0074 17.3079 10Z" fill="white"/>
</svg>
