<svg width="18" height="18" viewBox="0 0 18 18" fill="none" xmlns="http://www.w3.org/2000/svg">
<path d="M13.3782 10.5461C13.248 10.4919 13.1151 10.4891 12.9795 10.538C12.8438 10.5868 12.7489 10.6763 12.6946 10.8065L12.6214 10.953L12.4179 11.2785L12.0599 11.7505L11.539 12.247L10.8554 12.7108L10.0009 13.0445L8.96741 13.1828C8.95656 13.1828 8.94571 13.1855 8.93486 13.191L8.91858 13.1991C8.61476 13.1991 8.32179 13.1666 8.03967 13.1014C7.75756 13.0363 7.50799 12.9468 7.29098 12.8329C7.07396 12.719 6.87051 12.5969 6.68062 12.4667C6.49074 12.3365 6.32255 12.1927 6.17607 12.0354C6.02958 11.878 5.90209 11.7343 5.79358 11.6041C5.68507 11.4738 5.59284 11.3436 5.51689 11.2134C5.44093 11.0832 5.38668 10.991 5.35413 10.9367C5.32157 10.8825 5.29987 10.8391 5.28902 10.8065C5.22392 10.6763 5.12626 10.5868 4.99605 10.538C4.86584 10.4891 4.73292 10.4946 4.59729 10.5542C4.46166 10.6139 4.36943 10.7089 4.3206 10.8391C4.27177 10.9693 4.27991 11.1049 4.34501 11.246C4.35586 11.2785 4.37485 11.3219 4.40198 11.3762C4.4291 11.4304 4.48607 11.5254 4.57288 11.661C4.65968 11.7966 4.7492 11.9323 4.84143 12.0679C4.93366 12.2036 5.05844 12.3582 5.21578 12.5318C5.37312 12.7054 5.53859 12.8682 5.7122 13.0201C5.88581 13.172 6.08926 13.3239 6.32255 13.4758C6.55584 13.6277 6.79998 13.7579 7.05497 13.8664C7.30996 13.9749 7.59751 14.0644 7.9176 14.135C8.2377 14.2055 8.56593 14.2408 8.9023 14.2408C8.91315 14.2408 8.93486 14.2353 8.96741 14.2245C9.5859 14.2245 10.1718 14.1187 10.7252 13.9071C11.2786 13.6955 11.7181 13.4622 12.0436 13.2072C12.3691 12.9522 12.6648 12.6566 12.9306 12.3202C13.1965 11.9838 13.3701 11.7424 13.4515 11.5959C13.5328 11.4494 13.5952 11.3274 13.6386 11.2297C13.6712 11.1863 13.6902 11.1348 13.6956 11.0751C13.701 11.0154 13.6956 10.9611 13.6793 10.9123C13.663 10.8635 13.6441 10.8147 13.6224 10.7658C13.6007 10.717 13.5681 10.6736 13.5247 10.6356C13.4813 10.5976 13.4325 10.5678 13.3782 10.5461ZM8.99996 0.66655C7.87149 0.66655 6.79184 0.886276 5.76103 1.32573C4.73021 1.76518 3.84317 2.35655 3.09989 3.09982C2.35662 3.84309 1.76526 4.73013 1.32581 5.76095C0.886353 6.79177 0.666626 7.87141 0.666626 8.99988C0.666626 10.1284 0.886353 11.208 1.32581 12.2388C1.76526 13.2696 2.35662 14.1567 3.09989 14.8999C3.84317 15.6432 4.73021 16.2346 5.76103 16.674C6.79184 17.1135 7.87149 17.3332 8.99996 17.3332C10.1284 17.3332 11.2081 17.1135 12.2389 16.674C13.2697 16.2346 14.1568 15.6432 14.9 14.8999C15.6433 14.1567 16.2347 13.2696 16.6741 12.2388C17.1136 11.208 17.3333 10.1284 17.3333 8.99988C17.3333 7.87141 17.1136 6.79177 16.6741 5.76095C16.2347 4.73013 15.6433 3.84309 14.9 3.09982C14.1568 2.35655 13.2697 1.76518 12.2389 1.32573C11.2081 0.886276 10.1284 0.66655 8.99996 0.66655ZM8.99996 16.2916C8.20786 16.2916 7.44017 16.1695 6.6969 15.9253C5.95363 15.6812 5.2836 15.334 4.68681 14.8837C4.09002 14.4334 3.56647 13.9098 3.11617 13.313C2.66587 12.7162 2.31864 12.0462 2.0745 11.3029C1.83036 10.5597 1.70829 9.79198 1.70829 8.99988C1.70829 8.01247 1.90089 7.06846 2.28609 6.16785C2.67129 5.26724 3.18941 4.49142 3.84045 3.84038C4.4915 3.18934 5.26732 2.67122 6.16793 2.28602C7.06854 1.90082 8.01255 1.70822 8.99996 1.70822C9.98737 1.70822 10.9314 1.90082 11.832 2.28602C12.7326 2.67122 13.5084 3.18934 14.1595 3.84038C14.8105 4.49142 15.3286 5.26724 15.7138 6.16785C16.099 7.06846 16.2916 8.01247 16.2916 8.99988C16.2916 9.9873 16.099 10.9313 15.7138 11.8319C15.3286 12.7325 14.8105 13.5083 14.1595 14.1594C13.5084 14.8104 12.7326 15.3286 11.832 15.7138C10.9314 16.099 9.98737 16.2916 8.99996 16.2916ZM6.39579 8.47905C6.67791 8.47905 6.91934 8.37597 7.12008 8.16981C7.32081 7.96364 7.42118 7.7195 7.42118 7.43738C7.42118 7.25292 7.37507 7.07931 7.28284 6.91655C7.19061 6.75379 7.06582 6.62629 6.90849 6.53406C6.75115 6.44183 6.58025 6.39572 6.39579 6.39572C6.10282 6.39572 5.85597 6.4988 5.65523 6.70496C5.45449 6.91112 5.35413 7.15527 5.35413 7.43738C5.35413 7.86056 5.53859 8.16981 5.90751 8.36512C6.07027 8.44107 6.23303 8.47905 6.39579 8.47905ZM11.6041 8.47905C11.6801 8.47905 11.756 8.4682 11.832 8.4465C11.9079 8.4248 11.9812 8.39767 12.0517 8.36512C12.1222 8.33257 12.1874 8.29188 12.247 8.24305C12.3067 8.19422 12.361 8.13997 12.4098 8.08029C12.4586 8.02061 12.4993 7.95822 12.5319 7.89311C12.5644 7.82801 12.5888 7.75477 12.6051 7.67339C12.6214 7.59201 12.6295 7.51334 12.6295 7.43738C12.6295 7.15527 12.5291 6.91112 12.3284 6.70496C12.1277 6.4988 11.8835 6.39572 11.596 6.39572C11.3084 6.39572 11.0643 6.4988 10.8636 6.70496C10.6628 6.91112 10.5625 7.15527 10.5625 7.43738C10.5625 7.7195 10.6628 7.96364 10.8636 8.16981C11.0643 8.37597 11.3112 8.47905 11.6041 8.47905Z" fill="white"/>
</svg>
