<svg width="20" height="20" viewBox="0 0 20 20" fill="none" xmlns="http://www.w3.org/2000/svg">
<path d="M12.7758 8.6117V7.22289H7.22058V8.6117H11.0398L7.22058 12.7781V14.167H12.7758V12.7781H8.96146L12.7758 8.6117Z" fill="white"/>
<path d="M14.859 2.64797L15.843 1.66747L18.331 4.16039L17.3485 5.14089L14.859 2.64797Z" fill="white"/>
<path d="M9.99809 18.3332C8.48735 18.3332 7.01053 17.8852 5.75439 17.0459C4.49825 16.2065 3.5192 15.0136 2.94107 13.6178C2.36293 12.2221 2.21166 10.6862 2.50639 9.2045C2.80113 7.72278 3.52862 6.36174 4.59688 5.29348C5.66514 4.22522 7.02618 3.49772 8.5079 3.20299C9.98962 2.90826 11.5255 3.05953 12.9212 3.63766C14.317 4.2158 15.5099 5.19484 16.3493 6.45098C17.1886 7.70713 17.6366 9.18395 17.6366 10.6947C17.6344 12.7199 16.8289 14.6615 15.3969 16.0935C13.9649 17.5255 12.0233 18.331 9.99809 18.3332ZM9.99809 4.44503C8.76203 4.44503 7.55372 4.81157 6.52597 5.49829C5.49822 6.18501 4.69718 7.16108 4.22416 8.30305C3.75114 9.44503 3.62738 10.7016 3.86852 11.9139C4.10967 13.1263 4.70489 14.2398 5.57892 15.1139C6.45295 15.9879 7.56653 16.5831 8.77885 16.8243C9.99116 17.0654 11.2478 16.9416 12.3897 16.4686C13.5317 15.9956 14.5078 15.1946 15.1945 14.1668C15.8812 13.1391 16.2478 11.9308 16.2478 10.6947C16.2459 9.03774 15.5869 7.44919 14.4152 6.27755C13.2436 5.10591 11.655 4.44687 9.99809 4.44503Z" fill="white"/>
<path d="M1.66663 4.15957L4.15469 1.66665L5.13727 2.64715L2.64921 5.14007L1.66663 4.15957Z" fill="white"/>
</svg>
