<svg width="20" height="20" viewBox="0 0 20 20" fill="none" xmlns="http://www.w3.org/2000/svg">
<path d="M11.0882 10.8334L16.5066 5.22443L15.4313 4.11126C13.9191 2.54597 11.8682 1.66661 9.72973 1.66662C7.59125 1.66664 5.54036 2.54603 4.02823 4.11134C2.51611 5.67665 1.66661 7.79966 1.66663 10.0133C1.66664 12.227 2.51616 14.35 4.02831 15.9153L5.10352 17.0285L10.2123 11.74L15.7972 17.5211L16.3229 18.0654C16.4883 18.2366 16.7162 18.3333 16.9543 18.3333H16.9834C17.489 18.3333 17.7467 17.726 17.3954 17.3624L11.0882 10.8334ZM9.72981 2.94881C10.6264 2.94628 11.5145 3.12785 12.3429 3.48302C13.1712 3.83818 13.9233 4.35989 14.5555 5.01794L14.7551 5.22459L12.5468 7.51055C11.7976 6.71882 10.9833 5.99597 10.1132 5.35015C9.13726 4.63549 8.19976 4.13505 7.32681 3.86254C7.10956 3.79431 6.88869 3.73908 6.6653 3.69712C7.61612 3.20277 8.6658 2.94645 9.72981 2.94881ZM5.10352 15.2154L4.90389 15.0088C3.89034 13.958 3.22175 12.6039 2.99278 11.138C2.76382 9.67222 2.98607 8.16897 3.62808 6.84112C3.66864 7.07236 3.72199 7.30099 3.78789 7.52589C4.05107 8.42957 4.53485 9.39999 5.22497 10.4102C5.84886 11.3109 6.54716 12.1538 7.31199 12.9294L5.10352 15.2154ZM8.18815 12.0223C7.72925 11.5562 6.94071 10.7011 6.23605 9.66982C5.35083 8.37432 4.43287 6.54886 4.9297 5.04446C6.37801 4.53193 8.13431 5.47459 9.38074 6.38407C10.3818 7.11456 11.2165 7.93915 11.6703 8.41767L8.18815 12.0223Z" fill="white"/>
</svg>
