<svg width="17" height="18" viewBox="0 0 17 18" fill="none" xmlns="http://www.w3.org/2000/svg">
<path d="M10.0882 9.83335L15.5066 4.22443L14.4313 3.11126C12.9191 1.54597 10.8682 0.666605 8.72973 0.66662C6.59125 0.666635 4.54036 1.54603 3.02823 3.11134C1.51611 4.67665 0.666611 6.79966 0.666626 9.01333C0.66664 11.227 1.51616 13.35 3.02831 14.9153L4.10352 16.0285L9.21232 10.74L14.7972 16.5211L15.3229 17.0654C15.4883 17.2366 15.7162 17.3333 15.9543 17.3333H15.9834C16.489 17.3333 16.7467 16.726 16.3954 16.3624L10.0882 9.83335ZM8.72981 1.94881C9.62638 1.94628 10.5145 2.12785 11.3429 2.48302C12.1712 2.83818 12.9233 3.35989 13.5555 4.01794L13.7551 4.22459L11.5468 6.51055C10.7976 5.71882 9.9833 4.99597 9.1132 4.35015C8.13726 3.63549 7.19976 3.13505 6.32681 2.86254C6.10956 2.79431 5.88869 2.73908 5.6653 2.69712C6.61612 2.20277 7.6658 1.94645 8.72981 1.94881ZM4.10352 14.2154L3.90389 14.0088C2.89034 12.958 2.22175 11.6039 1.99278 10.138C1.76382 8.67222 1.98607 7.16897 2.62808 5.84112C2.66864 6.07236 2.72199 6.30099 2.78789 6.52589C3.05107 7.42957 3.53485 8.39999 4.22497 9.41024C4.84886 10.3109 5.54716 11.1538 6.31199 11.9294L4.10352 14.2154ZM7.18815 11.0223C6.72925 10.5562 5.94071 9.7011 5.23605 8.66982C4.35083 7.37432 3.43287 5.54886 3.9297 4.04446C5.37801 3.53193 7.13431 4.47459 8.38074 5.38407C9.38176 6.11456 10.2165 6.93915 10.6703 7.41767L7.18815 11.0223Z" fill="white"/>
</svg>
